HIERARCHY
ROOT Hips
{
	OFFSET -3.958830 18.904000 13.208200
	CHANNELS 6 Xposition Yposition Zposition Zrotation Yrotation Xrotation 
	JOINT LHipJoint
	{
		OFFSET 0.000000 0.000000 0.000000
		CHANNELS 3 Zrotation Yrotation Xrotation
		JOINT LeftUpLeg
		{
			OFFSET 1.800000 -1.400000 0.085000
			CHANNELS 3 Zrotation Yrotation Xrotation
			JOINT LeftLeg
			{
				OFFSET 2.215000 -6.000000 0.000000
				CHANNELS 3 Zrotation Yrotation Xrotation
				JOINT LeftFoot
				{
					OFFSET 2.500000 -6.900000 0.000000
					CHANNELS 3 Zrotation Yrotation Xrotation
					JOINT LeftToeBase
					{
						OFFSET 0.200000 -0.500000 1.950000
						CHANNELS 3 Zrotation Yrotation Xrotation
						End Site
						{
							OFFSET 0.000000 0.000000 0.000000
						}
					}
				}
			}
		}
	}
	JOINT RHipJoint
	{
		OFFSET 0.000000 0.000000 0.000000
		CHANNELS 3 Zrotation Yrotation Xrotation
		JOINT RightUpLeg
		{
			OFFSET -1.800000 -1.400000 0.085000
			CHANNELS 3 Zrotation Yrotation Xrotation
			JOINT RightLeg
			{
				OFFSET -2.215000 -6.000000 0.000000
				CHANNELS 3 Zrotation Yrotation Xrotation
				JOINT RightFoot
				{
					OFFSET -2.500000 -6.900000 0.000000
					CHANNELS 3 Zrotation Yrotation Xrotation
					JOINT RightToeBase
					{
						OFFSET -0.200000 -0.500000 1.950000
						CHANNELS 3 Zrotation Yrotation Xrotation
						End Site
						{
							OFFSET 0.000000 0.000000 0.000000
						}
					}
				}
			}
		}
	}
	JOINT LowerBack
	{
		OFFSET 0.000000 0.000000 0.000000
		CHANNELS 3 Zrotation Yrotation Xrotation
		JOINT Spine
		{
			OFFSET -0.087000 1.940000 -0.288900
			CHANNELS 3 Zrotation Yrotation Xrotation
			JOINT Spine1
			{
				OFFSET 0.000000 1.950000 0.060000
				CHANNELS 3 Zrotation Yrotation Xrotation
				JOINT Neck
				{
					OFFSET 0.000000 0.000000 0.000000
					CHANNELS 3 Zrotation Yrotation Xrotation
					JOINT Neck1
					{
						OFFSET 0.000000 1.600000 0.340000
						CHANNELS 3 Zrotation Yrotation Xrotation
						JOINT Head
						{
							OFFSET 0.000000 1.667000 -0.240000
							CHANNELS 3 Zrotation Yrotation Xrotation
							End Site
							{
								OFFSET 0.000000 0.000000 0.000000
							}
						}
					}
				}
				JOINT LeftShoulder
				{
					OFFSET 0.000000 0.000000 0.000000
					CHANNELS 3 Zrotation Yrotation Xrotation
					JOINT LeftArm
					{
						OFFSET 2.700000 1.550000 -0.730000
						CHANNELS 3 Zrotation Yrotation Xrotation
						JOINT LeftForeArm
						{
							OFFSET 5.450000 0.000000 0.000000
							CHANNELS 3 Zrotation Yrotation Xrotation
							JOINT LeftHand
							{
								OFFSET 3.450000 0.000000 0.000000
								CHANNELS 3 Zrotation Yrotation Xrotation
								JOINT LeftHandIndex1
								{
									OFFSET 0.750000 0.000000 0.000000
									CHANNELS 3 Zrotation Yrotation Xrotation
									End Site
									{
										OFFSET 0.000000 0.000000 0.000000
									}
								}
							}
						}
					}
				}
				JOINT RightShoulder
				{
					OFFSET 0.000000 0.000000 0.000000
					CHANNELS 3 Zrotation Yrotation Xrotation
					JOINT RightArm
					{
						OFFSET -2.700000 1.550000 -0.730000
						CHANNELS 3 Zrotation Yrotation Xrotation
						JOINT RightForeArm
						{
							OFFSET -5.450000 0.000000 0.000000
							CHANNELS 3 Zrotation Yrotation Xrotation
							JOINT RightHand
							{
								OFFSET -3.450000 0.000000 0.000000
								CHANNELS 3 Zrotation Yrotation Xrotation
								JOINT RightHandIndex1
								{
									OFFSET -0.750000 0.000000 0.000000
									CHANNELS 3 Zrotation Yrotation Xrotation
									End Site
									{
										OFFSET 0.000000 0.000000 0.000000
									}
								}
							}
						}
					}
				}
			}
		}
	}
}
MOTION
Frames: 13
Frame Time: 0.016667
-0.230930 17.539660 -1.844970 -14.773976 57.781208 -17.594843 -15.630321 14.088045 3.308186 7.123727 -0.132394 -2.768737 -5.314180 4.620153 3.583800 -0.486446 4.093451 3.239286 0.526210 0.199130 0.398220 17.549885 -10.975253 2.394925 -22.298603 -2.694243 -19.240999 5.786402 -6.057019 15.046091 -0.112160 -3.424797 3.223225 0.191330 -0.009880 -0.124850 -3.294143 -2.772652 -7.924888 7.739517 -2.105327 22.899885 -1.095509 0.170583 10.350880 2.387961 6.474993 -11.377636 5.487585 -12.954229 46.729500 10.454040 -14.601650 -14.344970 -17.263201 -23.461892 0.170353 -3.071271 -32.287850 -3.738006 39.482117 -35.779533 -12.376578 -3.394215 2.574146 0.643100 -0.164440 -0.048000 0.116620 12.673520 17.141156 12.242360 -4.625461 -6.532273 -1.683042 -13.215648 7.987114 -0.432080 2.259232 -1.217732 -0.264840 0.320140 -0.083290 -0.285320 
-0.244090 17.524400 -1.862680 -15.471327 57.808603 -18.654447 -15.625118 14.101963 3.335612 7.369636 -0.007503 -2.106773 -5.138099 4.585856 3.011616 -0.486263 4.149821 3.211876 0.555230 0.250450 0.411200 17.563170 -11.033238 2.285692 -21.560230 -2.633448 -19.151737 5.265085 -6.133649 16.481298 -0.107687 -3.461957 3.204821 0.229230 -0.010650 -0.112110 -3.284479 -2.719480 -7.841942 8.150319 -2.166361 23.266185 -1.278911 0.142862 11.538205 2.701136 6.630012 -11.070774 5.987222 -13.433313 45.044426 9.457000 -14.309920 -15.345390 -16.590231 -23.545727 -0.395064 -2.254216 -33.448208 -4.087729 39.506814 -34.140559 -12.108796 -3.435330 2.596170 0.616660 -0.149000 -0.049310 0.111950 11.357110 17.112888 12.418110 -3.423106 -5.824741 -1.908691 -15.027473 7.756837 -0.651903 2.250945 -1.251150 -0.248440 0.322840 -0.083870 -0.279510 
-0.277180 17.513260 -1.888300 -15.804992 57.866757 -19.423702 -15.628180 14.119891 3.484050 7.712192 0.110553 -1.082359 -5.586953 4.494673 1.094246 -0.512941 4.357033 3.140223 0.561440 0.254230 0.400090 17.577687 -11.064638 2.099912 -20.244126 -2.363665 -19.541586 4.179033 -6.344675 19.987644 -0.094070 -3.608023 3.133314 0.271320 0.026480 -0.084520 -3.057252 -2.855502 -7.744110 7.338274 -1.915139 23.752473 -0.835452 0.203311 12.888509 3.090353 6.905216 -10.736282 6.848722 -13.591257 42.926020 8.641640 -13.825060 -15.887290 -16.026475 -23.843359 -0.894436 -2.102391 -34.737856 -4.411400 40.682281 -31.914270 -12.271709 -3.520345 2.616316 0.611410 -0.109250 -0.076830 0.104320 10.077994 17.416489 12.510173 -1.699826 -4.567192 -2.975544 -20.123522 7.312467 -1.228728 2.218345 -1.335013 -0.273320 0.337310 -0.045800 -0.289510 
-0.312010 17.505640 -1.911500 -16.848021 57.514672 -20.268559 -15.614111 14.057205 3.566065 8.639505 0.031022 -0.848947 -6.279747 4.477695 -0.053650 -0.624316 4.635456 3.050618 0.513510 0.156260 0.381360 17.619315 -11.131488 1.978774 -17.687389 -1.322127 -21.419378 2.033683 -6.689193 27.157060 -0.107225 -4.086070 2.936532 0.280540 0.111060 -0.041700 -3.086932 -2.678226 -7.674796 8.096441 -1.782409 23.568733 -1.163959 0.408753 14.126917 3.604941 6.724124 -10.486146 6.962654 -13.426040 41.199081 7.380260 -13.451060 -16.260940 -14.974118 -23.731240 -0.925731 -4.515217 -35.333332 -4.198589 44.475063 -30.684907 -13.881196 -3.636906 2.559219 0.648380 -0.043860 -0.127250 0.070590 8.023422 17.684138 12.215488 1.808079 -1.686165 -4.628920 -25.972360 7.478643 -2.132734 2.143390 -1.389220 -0.353970 0.386810 0.050670 -0.325630 
-0.369100 17.517120 -1.931860 -17.768561 57.530866 -21.421033 -15.624961 13.995398 3.495684 9.525524 -0.019434 -1.259591 -6.597940 4.577544 0.532491 -0.630711 4.601189 2.995451 0.611870 0.302140 0.432200 17.644468 -11.065984 2.064466 -15.505361 0.119324 -23.119973 0.691400 -7.482483 36.255601 -0.308189 -5.166469 2.518252 0.353250 0.032610 -0.013230 -3.058836 -2.576668 -7.642866 8.418716 -1.379222 24.422473 -1.153540 0.858499 15.404046 4.350744 6.866359 -10.095566 7.718128 -13.703752 39.142097 7.326460 -12.607920 -18.662830 -13.902270 -23.022739 -0.806675 -9.490230 -36.245670 -3.793215 50.979248 -31.660692 -17.261665 -3.584516 2.628015 0.623450 -0.066500 -0.086830 0.060790 5.560965 17.373696 11.587712 8.022836 -0.696082 -7.263492 -35.062831 14.049704 -5.329020 2.025695 -1.563189 -0.281740 0.324260 0.009180 -0.323410 
-0.435210 17.526920 -1.950280 -18.264232 57.959131 -22.134845 -15.657715 13.938631 3.254329 9.696629 -0.037754 -2.478349 -6.119514 4.778623 2.778640 -0.797541 4.595477 3.028111 0.598300 0.266200 0.450590 17.653213 -10.914161 2.336043 -13.924057 1.841621 -24.718477 0.294423 -8.845408 45.573345 -0.599859 -6.617345 2.038567 0.392670 0.101900 -0.041740 -3.108426 -2.465550 -7.653228 8.579703 -0.939021 25.334238 -1.176124 1.459838 15.858761 4.887273 6.881775 -9.374562 8.211019 -14.337269 37.145426 6.888980 -12.450670 -20.587020 -13.503662 -21.803742 -0.953898 -14.072200 -37.254820 -2.527539 56.662671 -35.874035 -21.739349 -3.576643 2.420585 0.681340 -0.039350 -0.108470 0.067490 4.257829 16.652910 10.586080 14.138837 0.610018 -10.549511 -45.555258 23.160205 -11.088855 1.811870 -1.527851 -0.387280 0.450720 0.041720 -0.358470 
-0.477930 17.540050 -1.956030 -19.432693 58.554369 -23.778290 -15.678030 13.857579 2.966509 10.269650 -0.039213 -3.596170 -5.555042 5.109988 5.866922 -0.846462 4.541419 3.010364 0.569120 0.225560 0.459440 17.661283 -10.812107 2.651149 -11.776010 3.619698 -25.492294 -0.324248 -10.298738 54.784857 -0.978611 -8.187212 1.532203 0.359940 0.080270 -0.013940 -3.426306 -2.074267 -7.739487 10.021398 -1.174262 26.057138 -2.201201 1.573988 16.504878 5.225234 6.921987 -9.658953 8.663085 -14.571218 37.416481 6.073960 -11.960910 -20.832560 -12.554967 -21.113152 0.040313 -18.452573 -36.122709 -1.968154 64.359003 -42.825297 -29.253889 -3.514011 2.263606 0.691520 -0.033820 -0.097830 0.029670 2.760133 16.206804 10.135367 21.236794 2.108444 -13.610435 -56.866576 34.331997 -20.578699 1.642039 -1.403886 -0.378360 0.412490 0.063760 -0.376640 
-0.511880 17.522080 -1.944920 -18.321583 59.043197 -23.523652 -15.730075 13.768460 2.678872 9.720972 0.042699 -4.526126 -5.062834 5.514053 9.524173 -0.844255 4.480643 3.008192 0.590360 0.247480 0.494620 17.653291 -10.656964 3.001342 -10.426593 5.573708 -26.257154 -1.080456 -12.016357 65.201871 -1.487908 -9.977588 1.011498 0.347090 0.036300 -0.003710 -3.606075 -1.822405 -7.829842 9.414286 -1.011840 26.719478 -2.719895 1.660985 17.234328 5.339737 6.844755 -10.149091 9.103686 -13.971090 38.291863 6.119980 -10.763800 -21.823970 -11.419860 -19.995348 1.260699 -22.587664 -33.552283 -2.199616 73.033943 -49.366985 -38.860710 -3.397683 2.055305 0.715780 -0.061250 -0.055030 0.033290 1.621181 15.853370 9.702138 26.590282 6.068124 -15.025095 -67.356833 44.103459 -32.341490 1.496468 -1.118056 -0.355360 0.384850 0.030060 -0.386170 
-0.543490 17.498570 -1.947240 -18.031490 58.769885 -24.643479 -15.747333 13.728506 2.412220 10.178084 0.129921 -5.576770 -4.842795 6.303370 14.554203 -0.778099 4.579577 2.877290 0.651040 0.314370 0.580260 17.652948 -10.513349 3.336595 -8.897772 7.584898 -25.528366 -0.737556 -14.560424 74.289922 -2.025605 -11.569446 0.569145 0.322260 -0.130860 0.006030 -3.905487 -1.536986 -7.983502 10.224303 -1.577713 28.500782 -3.945069 1.305985 18.186445 5.526571 6.224577 -11.247188 8.574724 -12.426880 41.198475 6.464940 -8.458960 -25.023410 -10.942183 -19.757376 3.554085 -26.228467 -28.298151 -3.792773 87.889794 -54.397257 -55.688609 -3.286936 1.845582 0.786020 -0.171060 0.051590 -0.000200 0.909518 16.632895 9.479431 29.877782 10.363411 -15.620110 -76.534245 52.102948 -44.805858 1.421449 -0.659648 -0.281760 0.277100 -0.034140 -0.421700 
-0.576090 17.455120 -1.932530 -16.457644 57.866301 -24.374241 -15.770218 13.635752 2.211737 10.722836 0.295003 -6.338795 -5.328746 7.567302 19.723714 -0.790834 5.177915 2.643409 0.571320 0.170450 0.640390 17.665268 -10.253198 3.699210 -7.909728 10.032683 -24.899912 0.146740 -17.717393 82.609640 -2.480098 -13.028462 0.199268 0.259030 -0.149490 -0.018230 -3.942039 -1.485425 -8.154270 9.784381 -0.925032 30.560219 -4.334521 2.075550 17.930509 5.694905 5.896360 -11.742669 8.433308 -11.933184 42.751327 5.497690 -6.921430 -27.984090 -12.914118 -19.074648 4.794174 -28.398759 -23.774076 -3.724807 102.368424 -59.386623 -77.208393 -3.462451 1.544203 0.919330 -0.210880 0.082360 -0.072380 2.569741 17.088123 9.311304 31.775673 12.943853 -15.244779 -87.887214 60.431717 -61.033020 1.330301 0.386845 -0.382800 0.338350 0.019250 -0.503400 
-0.613190 17.369080 -1.939920 -16.745931 60.892086 -24.724068 -15.837336 13.440083 2.106853 10.376748 -0.152450 -8.996400 -5.423785 8.222451 23.508830 -0.810384 5.486973 2.509697 0.513490 0.068920 0.677240 17.626859 -9.987578 4.006941 -8.880712 10.680305 -25.341249 3.208227 -23.952038 88.314381 -2.915924 -14.562195 -0.158007 0.207510 -0.168620 -0.040360 -4.157189 -1.297233 -8.332496 10.370142 -0.967123 31.302715 -5.040062 2.093464 16.551445 5.560977 7.059559 -12.373516 10.792723 -13.604519 43.407422 4.665660 -6.693710 -28.473340 -15.654676 -18.863900 5.322844 -30.004807 -21.348636 -2.667412 115.036411 -64.990995 -101.341333 -3.674159 1.891660 0.989430 -0.224160 0.089340 -0.116570 5.359973 15.873826 10.015244 35.349875 12.949255 -11.099726 -105.128901 64.517035 -87.941037 1.847545 1.042086 -0.443570 0.355250 0.041160 -0.560180 
-0.633560 17.270320 -1.931830 -16.019983 63.546861 -24.959609 -15.906965 13.284077 2.046166 9.820963 -0.477257 -10.408634 -5.244565 8.945683 27.531584 -0.712472 5.920785 2.331504 0.483460 0.014960 0.686870 17.573103 -9.745373 4.263219 -10.299325 11.069347 -24.053088 5.999102 -30.530316 93.260963 -3.344215 -15.994112 -0.465297 0.158190 -0.196040 -0.042230 -4.339715 -1.170242 -8.483816 10.510660 -0.888267 32.486247 -5.724897 2.111792 14.988439 5.211268 7.443079 -12.850501 11.729295 -14.526769 45.490168 5.255200 -7.149820 -27.623790 -18.357852 -19.577655 5.930022 -31.497769 -16.770821 -5.441781 138.015214 -71.190856 -137.890476 -3.512063 2.832393 1.015960 -0.248240 0.106150 -0.134950 8.504636 16.441983 10.457385 37.509581 11.530578 -11.127754 -133.095175 70.377730 -137.509903 2.076101 -1.178567 -0.442100 0.328080 0.040000 -0.572690 
-0.643460 17.167810 -1.920370 -15.398649 66.382973 -25.319243 -15.992155 13.136889 2.013791 9.292400 -0.760560 -11.255880 -5.155353 9.538228 30.581196 -0.607408 6.291198 2.180965 0.484890 0.018040 0.693660 17.503311 -9.398845 4.583836 -12.069250 11.399531 -22.142135 9.804025 -37.806537 96.111467 -3.721080 -17.200425 -0.695860 0.144010 -0.222400 -0.059560 -4.421946 -1.224163 -8.668790 10.303645 -0.705297 33.828357 -5.595155 2.019171 12.814556 4.853759 7.500803 -12.694303 12.072168 -14.989423 47.211431 6.605310 -7.679080 -26.985670 -21.529340 -19.828284 6.405497 -32.589654 -11.842966 -8.255682 171.188979 -72.910255 178.448242 -3.327478 2.923741 1.022770 -0.274350 0.120590 -0.139190 12.329253 17.149824 9.725390 38.472134 10.351496 -14.632868 -175.269095 73.239878 168.178227 1.784878 -1.308419 -0.429250 0.313020 0.021710 -0.570360 
